<svg height="1070" width="720" xmlns="http://www.w3.org/2000/svg">
<rect height="1070" fill="#555" width="720"></rect>
<text fill="#7f7" font-family="Courier New" font-size="12" xml:space="preserve">
<tspan x="10" y="26">4 megabytes installed</tspan>
<tspan x="10" y="42"></tspan>
<tspan x="10" y="58">node_modules</tspan>
<tspan x="10" y="74">└─┬ optimize-js@1.0.3 </tspan>
<tspan x="10" y="90">  ├── acorn@3.3.0 </tspan>
<tspan x="10" y="106">  ├─┬ concat-stream@1.6.0 </tspan>
<tspan x="10" y="122">  │ ├── inherits@2.0.3 </tspan>
<tspan x="10" y="138">  │ ├─┬ readable-stream@2.2.9 </tspan>
<tspan x="10" y="154">  │ │ ├── buffer-shims@1.0.0 </tspan>
<tspan x="10" y="170">  │ │ ├── core-util-is@1.0.2 </tspan>
<tspan x="10" y="186">  │ │ ├── isarray@1.0.0 </tspan>
<tspan x="10" y="202">  │ │ ├── process-nextick-args@1.0.7 </tspan>
<tspan x="10" y="218">  │ │ ├── string_decoder@1.0.0 </tspan>
<tspan x="10" y="234">  │ │ └── util-deprecate@1.0.2 </tspan>
<tspan x="10" y="250">  │ └── typedarray@0.0.6 </tspan>
<tspan x="10" y="266">  ├── estree-walker@0.3.1 </tspan>
<tspan x="10" y="282">  ├─┬ magic-string@0.16.0 </tspan>
<tspan x="10" y="298">  │ └── vlq@0.2.2 </tspan>
<tspan x="10" y="314">  └─┬ yargs@4.8.1 </tspan>
<tspan x="10" y="330">    ├─┬ cliui@3.2.0 </tspan>
<tspan x="10" y="346">    │ ├─┬ strip-ansi@3.0.1 </tspan>
<tspan x="10" y="362">    │ │ └── ansi-regex@2.1.1 </tspan>
<tspan x="10" y="378">    │ └── wrap-ansi@2.1.0 </tspan>
<tspan x="10" y="394">    ├── decamelize@1.2.0 </tspan>
<tspan x="10" y="410">    ├── get-caller-file@1.0.2 </tspan>
<tspan x="10" y="426">    ├── lodash.assign@4.2.0 </tspan>
<tspan x="10" y="442">    ├─┬ os-locale@1.4.0 </tspan>
<tspan x="10" y="458">    │ └─┬ lcid@1.0.0 </tspan>
<tspan x="10" y="474">    │   └── invert-kv@1.0.0 </tspan>
<tspan x="10" y="490">    ├─┬ read-pkg-up@1.0.1 </tspan>
<tspan x="10" y="506">    │ ├─┬ find-up@1.1.2 </tspan>
<tspan x="10" y="522">    │ │ ├── path-exists@2.1.0 </tspan>
<tspan x="10" y="538">    │ │ └─┬ pinkie-promise@2.0.1 </tspan>
<tspan x="10" y="554">    │ │   └── pinkie@2.0.4 </tspan>
<tspan x="10" y="570">    │ └─┬ read-pkg@1.1.0 </tspan>
<tspan x="10" y="586">    │   ├─┬ load-json-file@1.1.0 </tspan>
<tspan x="10" y="602">    │   │ ├── graceful-fs@4.1.11 </tspan>
<tspan x="10" y="618">    │   │ ├─┬ parse-json@2.2.0 </tspan>
<tspan x="10" y="634">    │   │ │ └─┬ error-ex@1.3.1 </tspan>
<tspan x="10" y="650">    │   │ │   └── is-arrayish@0.2.1 </tspan>
<tspan x="10" y="666">    │   │ ├── pify@2.3.0 </tspan>
<tspan x="10" y="682">    │   │ └─┬ strip-bom@2.0.0 </tspan>
<tspan x="10" y="698">    │   │   └── is-utf8@0.2.1 </tspan>
<tspan x="10" y="714">    │   ├─┬ normalize-package-data@2.3.8 </tspan>
<tspan x="10" y="730">    │   │ ├── hosted-git-info@2.4.2 </tspan>
<tspan x="10" y="746">    │   │ ├─┬ is-builtin-module@1.0.0 </tspan>
<tspan x="10" y="762">    │   │ │ └── builtin-modules@1.1.1 </tspan>
<tspan x="10" y="778">    │   │ ├── semver@5.3.0 </tspan>
<tspan x="10" y="794">    │   │ └─┬ validate-npm-package-license@3.0.1 </tspan>
<tspan x="10" y="810">    │   │   ├─┬ spdx-correct@1.0.2 </tspan>
<tspan x="10" y="826">    │   │   │ └── spdx-license-ids@1.2.2 </tspan>
<tspan x="10" y="842">    │   │   └── spdx-expression-parse@1.0.4 </tspan>
<tspan x="10" y="858">    │   └── path-type@1.1.0 </tspan>
<tspan x="10" y="874">    ├── require-directory@2.1.1 </tspan>
<tspan x="10" y="890">    ├── require-main-filename@1.0.1 </tspan>
<tspan x="10" y="906">    ├── set-blocking@2.0.0 </tspan>
<tspan x="10" y="922">    ├─┬ string-width@1.0.2 </tspan>
<tspan x="10" y="938">    │ ├── code-point-at@1.1.0 </tspan>
<tspan x="10" y="954">    │ └─┬ is-fullwidth-code-point@1.0.0 </tspan>
<tspan x="10" y="970">    │   └── number-is-nan@1.0.1 </tspan>
<tspan x="10" y="986">    ├── which-module@1.0.0 </tspan>
<tspan x="10" y="1002">    ├── window-size@0.2.0 </tspan>
<tspan x="10" y="1018">    ├── y18n@3.2.1 </tspan>
<tspan x="10" y="1034">    └─┬ yargs-parser@2.4.1 </tspan>
<tspan x="10" y="1050">      └── camelcase@3.0.0</tspan>
</text>
</svg>
